<svg xmlns="http://www.w3.org/2000/svg" version="1.1" width="512" height="512" x="0" y="0" viewBox="0 0 405.82 405.82" style="enable-background:new 0 0 512 512" xml:space="preserve" class=""><g><g xmlns="http://www.w3.org/2000/svg" transform="translate(-2.24 -1.18)"><path d="m408.07 204.09c0 112.06-90.85 202.91-202.92 202.91h-.38c-111.89-.21-202.53-91-202.53-202.91s90.64-202.71 202.53-202.91h.38c112.07 0 202.92 90.82 202.92 202.91z" fill="#000000"></path><path d="m204.77 1.18v405.82c-111.89-.21-202.53-91-202.53-202.91s90.64-202.71 202.53-202.91z" fill="#0c0c0c"></path><path d="m315.56 147.92-.25 41.57a100.19 100.19 0 0 1 -24-3.22 101.52 101.52 0 0 1 -33.65-15.83c0 4.25.06 10.59.06 18.3 0 10.26 0 16.09-.06 22.28-.18 38.24.77 45.64-2.59 60.76a78.83 78.83 0 0 1 -2.86 10.75c-6.46 18-20.54 32.42-34.89 40.09a69.47 69.47 0 0 1 -12.55 5.17c-27.12 8.22-59.71 1-76.53-19l-.11-.12-.13-.17c-14.29-17.24-17.41-44.12-17.71-51 0-.88-.06-1.74-.06-1.74a84.38 84.38 0 0 1 4-27.72c2.9-9.26 12.45-28.59 33.9-40.33a74.14 74.14 0 0 1 43.74-8.37l-.49 42.07c-.85-.22-21.4-5.09-34.89 8.91-12.22 12.68-11.43 33.11-2.76 44.68.46.62.95 1.22 1.46 1.78 4.85 5.41 11 7.44 15.15 8.86a50.15 50.15 0 0 0 17.07 2.5 31.3 31.3 0 0 0 17.34-5.57c14.1-9.58 16-26.64 16.07-27.61q-.26-82.38-.49-164.76v-.05l26.43-.47h.43l3.83-.07a80.81 80.81 0 0 0 14.09 28 78.29 78.29 0 0 0 6.6 7.4 84.91 84.91 0 0 0 31.3 19.34h.08a90.74 90.74 0 0 0 12.47 3.57z" fill="#fd2854"></path><path d="m303.61 166.73h-.08a91.72 91.72 0 0 1 -42.53-3.23 90.55 90.55 0 0 1 -26.62-13.89 269.58 269.58 0 0 1 0 88c-5.71 34.24-9.29 55.7-28.4 69.43-.4.29-.81.58-1.22.85-26.39 17.87-63.26 9-76.77.59l-.2-.12-.38-.24a88.54 88.54 0 0 1 -12.48-10 72.81 72.81 0 0 1 -22.11-51.47 78 78 0 0 1 4.87-29.21c2.25-6 10.61-27.34 33.9-40.33a75.7 75.7 0 0 1 48.92-8.28q-.1 5-.19 10v.07l-.39 21.1a63.8 63.8 0 0 0 -22.29-1.24c-6 .74-11.88 1.43-18.13 5.36a36.37 36.37 0 0 0 -15.78 22.52 30.31 30.31 0 0 0 -.8 13.86c.24 1.32 2 10.49 9.4 17.07 2.49 2.21 3.55 2.3 7.18 5.69 3.2 3 4 4.44 6.93 6.93 0 0 .72.61 1.9 1.47a2.15 2.15 0 0 0 .24.18 42.89 42.89 0 0 0 5.07 3.19c7.33 3.84 20.45 4.25 30.07-.42 13.31-6.47 20.57-21.35 20.54-30.19q-.24-82.41-.49-164.81h.92l40.82-.24a32.32 32.32 0 0 0 1.31 9.41c.1.33.2.64.31 1s.18.53.27.78a45 45 0 0 0 2.19 4.86l.57 1.15v.09a.12.12 0 0 0 0 .08l.09.19.09.18a3.79 3.79 0 0 0 .18.34c.06.13.13.26.2.39.38.73.9 1.69 1.49 2.77.37.67.76 1.34 1.16 2l.43.71c.21.36.43.72.65 1.07l.8 1.27c3.11 4.91 8.57 13.18 16.31 19.43 10.88 8.78 23.38 11.26 31.22 12 .05 2.46.11 4.92.16 7.38q.44 11.14.67 22.26z" fill="#24f6fa"></path><path d="m303.74 178.48a89.19 89.19 0 0 1 -57.25-18.13v88c-.2 3.37-3.15 40.54-36.73 61-1.66 1-3.33 1.93-5 2.79-31.59 16.12-62.46 3.49-65.51 2.18a40.94 40.94 0 0 1 -8.66-4c-.85-.53-1.68-1.08-2.47-1.65l-.71-.53c-20.6-15.64-21.45-47.5-21.58-52.2a84.38 84.38 0 0 1 4-27.72c3.4-10.85 13.55-29.14 33.9-40.33a74.07 74.07 0 0 1 36.63-9v.07q-.25 15.85-.5 31.71c-2.15-.58-15.33-3.9-28.21 4.21a36.37 36.37 0 0 0 -15.78 22.52 32.43 32.43 0 0 0 -.8 13.85 31.66 31.66 0 0 0 7.78 15.26 36.46 36.46 0 0 0 5.53 5.17 2.15 2.15 0 0 0 .24.18 31.4 31.4 0 0 0 5.07 3.19l.06.05a31.38 31.38 0 0 0 33.68 13.14 37.37 37.37 0 0 0 8.47-2.86 33.53 33.53 0 0 0 8.87-6.14c10.12-9.73 11.6-23.19 11.67-24l-.44-164.89 4.4-.09 26.43-.52h.38c.1.26.21.52.32.78.61 1.47 1.34 3.1 2.19 4.86l.57 1.15v.09a.12.12 0 0 0 0 .08l.09.19.09.18a3.79 3.79 0 0 0 .18.34c.06.13.13.26.2.39.46.9 1 1.83 1.49 2.77.37.67.76 1.34 1.16 2l.43.71.65 1.07.8 1.27a98.26 98.26 0 0 0 16.31 19.43 98.5 98.5 0 0 0 31.3 19.34h.08c.13 7.41.26 14.84.38 22.25z" fill="#ffffff"></path></g></g></svg>